<svg xmlns="http://www.w3.org/2000/svg" xmlns:xlink="http://www.w3.org/1999/xlink" width="0" height="0" style="position:absolute">
	
		<symbol id="phone" viewBox="0 0 800 800">
			<path d="M798.109 630.463c1.715 12.888-2.223 24.193-11.787 33.703L674.288 775.354c-5.089 5.626-11.636 10.385-19.741 14.372-8.182 3.887-16.187 6.496-24.036 7.57-.588 0-2.302.103-5.064.512-2.811.203-6.47.357-10.971.357-10.636 0-27.951-1.841-51.781-5.523-23.886-3.58-53.063-12.634-87.611-26.901-34.547-14.373-73.698-35.853-117.528-64.494-43.78-28.64-90.449-67.971-139.854-117.888-39.304-38.768-71.882-75.846-97.71-111.238-25.827-35.34-46.593-68.072-62.32-98.145-15.778-30.021-27.542-57.231-35.391-81.677-7.876-24.498-13.22-45.571-16.035-63.266-2.812-17.544-3.912-31.557-3.35-41.632.538-10.126.896-15.752.896-16.928 1.073-7.774 3.631-15.803 7.543-23.884 3.938-8.236 8.721-14.833 14.295-19.794L137.685 14.687c7.852-7.825 16.853-11.711 26.979-11.711 7.313 0 13.732 1.994 19.357 6.188 5.599 4.193 10.409 9.411 14.321 15.65l90.142 171.026c5.063 8.949 6.444 18.821 4.219 29.407-2.275 10.69-7.032 19.743-14.346 27.004l-41.274 41.274c-1.099 1.074-2.097 2.915-2.939 5.574-.87 2.403-1.28 4.552-1.28 6.189 2.226 11.865 7.288 25.368 15.14 40.505 6.75 13.501 17.184 29.919 31.223 49.252 13.987 19.332 33.959 41.734 59.788 66.897 25.29 25.93 47.77 45.928 67.382 60.196 19.664 14.423 36.107 24.957 49.301 31.709 13.199 6.753 23.322 10.843 30.306 12.224l10.509 2.148c1.152 0 2.992-.513 5.526-1.279 2.505-.869 4.346-1.842 5.445-2.914l48.025-48.945c10.151-8.95 21.914-13.399 35.415-13.399 9.513 0 17.109 1.636 22.733 5.063h.794l162.613 95.946c11.788 7.262 18.823 16.573 21.045 27.772z"></path>
		</symbol>
	
		<symbol id="profile" viewBox="0 0 800 800">
			<path d="M529.879 408.05c52.857-39.704 87.529-102.296 87.529-173.51 0-120.098-97.328-217.367-217.421-217.367-120.039 0-217.396 97.27-217.396 217.367 0 71.214 34.701 133.806 87.588 173.51C114.777 461.833 2.997 609.132 2.997 782.827h794.007c0-173.695-111.791-320.994-267.125-374.777z"></path>
		</symbol>
	
</svg>
