<?xml version="1.0" encoding="utf-8"?>
<!-- Generator: Adobe Illustrator 16.2.0, SVG Export Plug-In . SVG Version: 6.00 Build 0)  -->
<!DOCTYPE svg PUBLIC "-//W3C//DTD SVG 1.1//EN" "http://www.w3.org/Graphics/SVG/1.1/DTD/svg11.dtd">
<svg version="1.1" id="Capa_2" xmlns="http://www.w3.org/2000/svg" xmlns:xlink="http://www.w3.org/1999/xlink" x="0px" y="0px"
	 width="800px" height="800px" viewBox="0 0 800 800" enable-background="new 0 0 800 800" xml:space="preserve">
<path d="M798.109,630.463c1.715,12.888-2.223,24.193-11.787,33.703L674.288,775.354c-5.089,5.626-11.636,10.385-19.741,14.372
	c-8.182,3.887-16.187,6.496-24.036,7.57c-0.588,0-2.302,0.103-5.064,0.512c-2.811,0.203-6.47,0.357-10.971,0.357
	c-10.636,0-27.951-1.841-51.781-5.523c-23.886-3.58-53.063-12.634-87.611-26.901c-34.547-14.373-73.698-35.853-117.528-64.494
	c-43.78-28.64-90.449-67.971-139.854-117.888c-39.304-38.768-71.882-75.846-97.71-111.238c-25.827-35.34-46.593-68.072-62.32-98.145
	c-15.778-30.021-27.542-57.231-35.391-81.677c-7.876-24.498-13.22-45.571-16.035-63.266c-2.812-17.544-3.912-31.557-3.35-41.632
	c0.538-10.126,0.896-15.752,0.896-16.928c1.073-7.774,3.631-15.803,7.543-23.884c3.938-8.236,8.721-14.833,14.295-19.794
	L137.685,14.687c7.852-7.825,16.853-11.711,26.979-11.711c7.313,0,13.732,1.994,19.357,6.188c5.599,4.193,10.409,9.411,14.321,15.65
	l90.142,171.026c5.063,8.949,6.444,18.821,4.219,29.407c-2.275,10.69-7.032,19.743-14.346,27.004l-41.274,41.274
	c-1.099,1.074-2.097,2.915-2.939,5.574c-0.87,2.403-1.28,4.552-1.28,6.189c2.226,11.865,7.288,25.368,15.14,40.505
	c6.75,13.501,17.184,29.919,31.223,49.252c13.987,19.332,33.959,41.734,59.788,66.897c25.29,25.93,47.77,45.928,67.382,60.196
	c19.664,14.423,36.107,24.957,49.301,31.709c13.199,6.753,23.322,10.843,30.306,12.224l10.509,2.148
	c1.152,0,2.992-0.513,5.526-1.279c2.505-0.869,4.346-1.842,5.445-2.914l48.025-48.945c10.151-8.95,21.914-13.399,35.415-13.399
	c9.513,0,17.109,1.636,22.733,5.063h0.794l162.613,95.946C788.852,609.953,795.887,619.264,798.109,630.463z"/>
</svg>
